<svg viewBox="0 0 938 970" fill="none" xmlns="http://www.w3.org/2000/svg">
<path d="M120.623 853.335C102.087 871.118 109.591 893.732 102.918 917.801C93.3179 952.433 55.1477 958.544 36.5753 927.601C5.08442 875.15 63.6706 819.805 95.8019 792.619C120.885 771.486 153.689 746.247 189.667 717.373L232.756 771.115C192.16 791.772 154.346 820.969 120.623 853.335Z" fill="currentColor" stroke="currentStroke" stroke-width="3"/>
<path d="M52.0492 901.188C51.8778 915.383 58.3371 927 66.4783 927.133C74.6195 927.265 81.3504 915.874 81.5186 901.68L81.5218 901.473C81.6253 887.279 75.1143 875.755 66.9731 875.732C58.8805 875.71 52.2207 887.078 52.0492 901.188Z" fill="currentColor" stroke="currentStroke" stroke-width="1.898"/>
<path d="M238.1 766.937C338.932 695.581 440.236 629.685 526.823 560.201C691.037 428.41 934.109 235.445 908.585 19.6846C830.993 161.178 764.298 222.01 699.738 266.799C717.056 347.047 540.954 467.168 470.245 520.208C380.805 587.303 290.644 652.312 197.759 713.597L238.1 766.937Z" fill="currentColor" stroke="currentStroke" stroke-width="3"/>
<path d="M821.549 203.852C751.713 330.796 623.566 439.08 501.008 536.594C424.286 597.64 337.376 657.262 251.617 710.612" stroke="currentStroke" stroke-width="1.578"/>
<path d="M269.203 697.779C270.348 699.205 270.581 701.42 269.533 704.052L250.456 754.689C246.988 763.914 251.206 773.565 255.362 779.159L290.829 826.954C296.803 827.523 303.162 830.863 307.9 836.771C315.851 846.687 316.087 859.63 308.576 865.654C301.066 871.678 288.474 868.625 280.52 858.709C275.785 852.805 273.906 845.869 274.653 839.917L235.7 794.909C231.143 789.641 222.636 783.417 212.874 784.798L159.285 792.396C156.484 792.846 154.372 792.134 153.23 790.708C152.089 789.283 151.853 787.071 152.897 784.439L171.974 733.802C175.442 724.577 171.224 714.926 167.071 709.332L131.605 661.543C125.627 660.974 119.268 657.631 114.53 651.727C106.583 641.81 106.343 628.867 113.854 622.844C121.364 616.82 133.956 619.872 141.91 629.785C146.645 635.693 148.524 642.628 147.777 648.578L186.73 693.579C191.287 698.849 199.794 705.07 209.556 703.693L263.145 696.095C265.946 695.642 268.055 696.353 269.203 697.779Z" fill="currentColor" stroke="currentStroke" stroke-width="3"/>
<path d="M239.982 721.192L198.18 727.895L182.541 767.225L224.34 760.522L239.982 721.192Z" fill="currentColor" stroke="currentStroke" stroke-width="1.578"/>
<path d="M817.376 855.999C783.653 823.633 745.839 794.44 705.243 773.775L748.333 720.034L842.198 795.284C874.329 822.469 932.915 877.814 901.424 930.262C882.852 961.205 844.682 955.094 835.082 920.462C828.409 896.396 835.916 873.782 817.376 855.999Z" fill="currentColor" stroke="currentStroke" stroke-width="3"/>
<path d="M871.027 878.4C862.886 878.419 856.375 889.943 856.478 904.141L856.481 904.347C856.653 918.539 863.387 929.936 871.522 929.797C879.656 929.658 886.122 918.044 885.951 903.856C885.782 889.742 879.119 878.374 871.027 878.4Z" fill="currentColor" stroke="currentStroke" stroke-width="1.898"/>
<path d="M740.24 716.261C647.356 654.98 557.195 589.97 467.755 522.872C397.046 469.836 220.941 349.714 238.262 269.463C173.701 224.675 107.006 163.843 29.4142 22.3521C3.89095 238.112 246.966 431.078 411.177 562.865C497.764 632.35 599.068 698.248 699.9 769.601L740.24 716.261Z" fill="currentColor" stroke="currentStroke" stroke-width="3"/>
<path d="M686.38 713.28C600.621 659.93 513.71 600.31 436.988 539.262C314.434 441.748 186.287 333.46 116.451 206.52" stroke="currentStroke" stroke-width="1.578"/>
<path d="M674.859 698.759L728.448 706.357C738.209 707.735 746.713 701.514 751.273 696.24L790.226 651.239C789.482 645.289 791.361 638.357 796.093 632.45C804.047 622.536 816.632 619.484 824.149 625.505C831.666 631.525 831.42 644.468 823.473 654.391C818.735 660.295 812.373 663.635 806.399 664.204L770.932 711.996C766.783 717.59 762.562 727.241 766.029 736.466L785.106 787.1C786.151 789.732 785.918 791.95 784.773 793.369C783.628 794.789 781.519 795.51 778.718 795.061L725.129 787.462C715.367 786.078 706.864 792.306 702.303 797.573L663.35 842.581C664.094 848.53 662.215 855.462 657.483 861.37C649.529 871.29 636.944 874.342 629.427 868.315C621.91 862.288 622.153 849.351 630.103 839.435C634.842 833.524 641.204 830.184 647.175 829.615L682.641 781.823C686.794 776.23 691.015 766.572 687.547 757.353L668.471 706.713C667.423 704.081 667.655 701.869 668.8 700.443C669.945 699.018 672.054 698.306 674.859 698.759Z" fill="currentColor" stroke="currentStroke" stroke-width="3"/>
<path d="M713.66 763.186L755.462 769.892L739.823 730.562L698.018 723.856L713.66 763.186Z" fill="currentColor" stroke="currentStroke" stroke-width="1.578"/>
</svg>
